<svg xmlns="http://www.w3.org/2000/svg" width="128" height="128" viewBox="0 0 128 128">
  <defs>
    <linearGradient id="grad" x1="0%" y1="0%" x2="100%" y2="100%">
      <stop offset="0%" style="stop-color:#7c3aed"/>
      <stop offset="100%" style="stop-color:#a78bfa"/>
    </linearGradient>
    <filter id="shadow" x="-20%" y="-20%" width="140%" height="140%">
      <feDropShadow dx="0" dy="4" stdDeviation="8" flood-opacity="0.3"/>
    </filter>
  </defs>
  <rect width="128" height="128" rx="28" fill="url(#grad)" filter="url(#shadow)"/>
  <path d="M64 24a22 22 0 0 0-22 22v12h-6a8 8 0 0 0-8 8v34a8 8 0 0 0 8 8h56a8 8 0 0 0 8-8V66a8 8 0 0 0-8-8h-6V46a22 22 0 0 0-22-22zm-10 22a10 10 0 1 1 20 0v12H54V46zm10 38a7 7 0 1 1 0-14 7 7 0 0 1 0 14z" fill="white"/>
  <circle cx="64" cy="77" r="4" fill="url(#grad)"/>
</svg>
