<svg xmlns="http://www.w3.org/2000/svg" width="48" height="48" viewBox="0 0 48 48">
  <defs>
    <linearGradient id="grad" x1="0%" y1="0%" x2="100%" y2="100%">
      <stop offset="0%" style="stop-color:#7c3aed"/>
      <stop offset="100%" style="stop-color:#a78bfa"/>
    </linearGradient>
  </defs>
  <rect width="48" height="48" rx="10" fill="url(#grad)"/>
  <path d="M24 10a8 8 0 0 0-8 8v4h-2a3 3 0 0 0-3 3v12a3 3 0 0 0 3 3h20a3 3 0 0 0 3-3V25a3 3 0 0 0-3-3h-2v-4a8 8 0 0 0-8-8zm-4 8a4 4 0 1 1 8 0v4h-8v-4zm4 14a2.5 2.5 0 1 1 0-5 2.5 2.5 0 0 1 0 5z" fill="white"/>
</svg>
